<?xml version="1.0" standalone="no"?>
<!DOCTYPE svg PUBLIC "-//W3C//DTD SVG 20010904//EN"
 "http://www.w3.org/TR/2001/REC-SVG-20010904/DTD/svg10.dtd">
<svg version="1"
    xmlns="http://www.w3.org/2000/svg"
 width="28" height="28" viewBox="0 0 128 128"
 preserveAspectRatio="xMidYMid meet">
    <metadata>
Created by potrace 1.15, written by Peter Selinger 2001-2017
</metadata>
    <g transform="translate(0,128) scale(0.1,-0.1)"
fill="#000000" stroke="none">
        <path d="M 555 1266 c -31 -14 -75 -57 -93 -91 c -9 -17 -19 -20 -75 -17 c -77 4 -122 -13 -167 -64 c -40 -46 -55 -106 -42 -164 l 11 -45 l -48 -42 c -120 -105 -98 -293 42 -358 c 28 -14 59 -25 69 -25 c 9 0 25 -16 36 -35 c 34 -57 139 -84 207 -53 c 30 14 38 6 55 -51 c 13 -49 -12 -169 -54 -253 l -34 -68 l 180 0 c 140 0 178 3 172 12 c -4 7 -15 24 -24 38 c -24 34 -56 142 -65 216 c -5 48 -3 69 9 93 c 16 31 17 31 46 16 c 68 -35 176 -9 212 50 c 11 19 27 35 36 35 c 10 0 41 11 69 25 c 140 25 162 253 42 358 l -48 42 l 11 45 c 13 58 -2 118 -42 164 c -45 51 -90 68 -166 64 c -62 -3 -65 -2 -83 27 c -24 10 -60 71 -94 84 c -39 15 -126 13 -162 -3 z m 330 -236 c 11 -6 -25 -45 -65 -86 c -14 -89 -312 -190 -200 -287 c -19 -42 -37 -77 -40 -77 c -1 0 -18 23 -34 52 c -16 28 -53 79 -82 114 c -45 53 -51 64 -38 74 c 11 10 24 9 62 -5 c 26 -10 53 -22 60 -28 c 9 -7 42 21 125 106 c 133 137 193 178 212 147 z"/>
    </g>
</svg>
